<?xml version="1.0" encoding="utf-8"?>
<!-- Generator: Adobe Illustrator 27.6.1, SVG Export Plug-In . SVG Version: 6.00 Build 0)  -->
<svg version="1.1" id="Layer_1" xmlns="http://www.w3.org/2000/svg" xmlns:xlink="http://www.w3.org/1999/xlink" x="0px" y="0px"
	 viewBox="0 0 252 172.8" style="enable-background:new 0 0 252 172.8;" xml:space="preserve">
<style type="text/css">
	.st0{fill:#4770B6;}
	.st1{fill:none;stroke:#305390;stroke-width:0.5077;stroke-miterlimit:8;}
	.st2{fill:#FFFFFF;}
	.st3{font-family:'TimesNewRomanPS-ItalicMT';}
	.st4{font-size:10.4954px;}
	.st5{fill:none;stroke:#305390;stroke-width:0.3799;stroke-miterlimit:8;}
	.st6{font-size:11.5145px;}
	.st7{fill:none;stroke:#305390;stroke-width:0.3979;stroke-miterlimit:8;}
	.st8{fill:none;stroke:#000000;stroke-width:0.3448;stroke-miterlimit:10;}
	.st9{fill:none;stroke:#4770B6;stroke-width:0.7115;stroke-miterlimit:8;}
</style>
<path class="st0" d="M135.79,93.43l-1.81-3.28l-1.87,3.25L135.79,93.43z M134.38,115.68l0.18-22.8l-1.23-0.01l-0.18,22.8
	L134.38,115.68z"/>
<path class="st0" d="M131.39,72.55l1.81,3.47l1.87-3.44L131.39,72.55z M132.8,49l-0.18,24.13l1.23,0.01l0.18-24.13L132.8,49z"/>
<g>
	<circle class="st1" cx="134.27" cy="82.67" r="7.2"/>
	<g>
		<path d="M129.83,78.44c0.41-0.32,0.68-0.1,0.97,0.2c1.12,1.17,2.25,2.32,3.43,3.54c1.23-1.25,2.37-2.39,3.5-3.55
			c0.3-0.31,0.58-0.5,0.98-0.19c0,0.11,0,0.22,0,0.33c-1.24,1.34-2.47,2.67-3.68,3.97c1.14,1.18,2.41,2.49,3.68,3.8
			c0.15,0.66-0.33,0.48-0.66,0.5c-1.3-1.24-2.6-2.48-3.72-3.55c-1.24,1.15-2.55,2.35-3.85,3.55c-0.33-0.01-0.81,0.17-0.66-0.5
			c1.27-1.3,2.54-2.61,3.74-3.84c-1.23-1.3-2.49-2.62-3.74-3.94C129.83,78.66,129.83,78.55,129.83,78.44z"/>
	</g>
</g>
<path class="st0" d="M146.06,81.11l5.06,1.81l-5.06,1.81L146.06,81.11z M141.64,82.31h5.26v1.2l-5.26,0V82.31z"/>
<g>
	<circle class="st1" cx="159.63" cy="82.91" r="7.2"/>
	<path class="st2" d="M159.22,81.6c0.37,0.91,0.7,1.7,1.04,2.53c-0.71,0-1.35,0-2.07,0C158.52,83.31,158.84,82.52,159.22,81.6z"/>
	<g>
		<path d="M155.85,80.9c0.99,0,1.98,0,3,0c0.01,0.12,0.02,0.23,0.03,0.37c-0.24,0.01-0.45,0.03-0.72,0.04
			c0.59,0.86,1.14,1.67,1.74,2.53c0.57-0.83,1.11-1.63,1.69-2.47c-0.24-0.04-0.42-0.07-0.64-0.11c0-0.1-0.01-0.21-0.02-0.36
			c0.72,0,1.42,0,2.12,0c0,0.13,0,0.26,0,0.39c-0.07,0-0.13,0.01-0.2,0c-0.5-0.07-0.81,0.15-1.08,0.57
			c-0.48,0.77-1.03,1.5-1.52,2.27c-0.12,0.18-0.19,0.42-0.2,0.64c-0.03,0.52-0.01,1.04-0.01,1.59c0.31,0,0.59,0,0.9,0
			c0.02,0.14,0.03,0.25,0.05,0.39c-1.03,0-2.02,0-3.03,0c-0.09-0.26-0.02-0.39,0.27-0.37c0.19,0.01,0.38,0,0.61,0
			c0-0.65,0.01-1.26-0.01-1.87c0-0.12-0.1-0.24-0.17-0.34c-0.55-0.82-1.13-1.62-1.67-2.45c-0.22-0.34-0.46-0.5-0.85-0.43
			c-0.1,0.02-0.21,0-0.31,0C155.85,81.16,155.85,81.03,155.85,80.9z"/>
		<path d="M160.6,80.12c-0.72-0.78-1.45-0.87-2.14,0.01c-0.13-0.17-0.21-0.26-0.32-0.4c0.08-0.05,0.13-0.08,0.18-0.12
			c0.39-0.31,0.77-0.62,1.19-0.95c0.45,0.36,0.89,0.72,1.35,1.08C160.78,79.86,160.72,79.95,160.6,80.12z"/>
	</g>
</g>
<g>
	<text transform="matrix(1 0 0 1 189.0081 77.0319)" class="st3 st4">BUDIP Loss</text>
	<path class="st5" d="M183.86,76.71c-0.84-4.85,3.47-9.31,9.62-9.97c2.49-0.27,5.03,0.13,7.2,1.13c2.3-3.42,7.67-4.72,12-2.9
		c0.76,0.32,1.45,0.72,2.06,1.19c1.79-2.83,6.15-3.98,9.74-2.57c0.99,0.39,1.86,0.96,2.53,1.65c2.89-2.68,7.99-3.01,11.39-0.74
		c1.43,0.95,2.4,2.27,2.73,3.72c4.73,1.02,7.52,4.87,6.23,8.61c-0.11,0.31-0.24,0.62-0.41,0.92c3.79,3.89,2.86,9.47-2.07,12.46
		c-1.54,0.93-3.35,1.53-5.27,1.75c-0.04,4.19-4.39,7.56-9.71,7.52c-1.78-0.01-3.51-0.41-5.02-1.15c-1.8,4.7-8.07,7.35-14.01,5.93
		c-2.49-0.6-4.64-1.86-6.09-3.57c-6.08,2.89-13.98,1.34-17.63-3.47c-0.05-0.06-0.09-0.12-0.14-0.18c-3.98,0.37-7.59-1.87-8.05-5
		c-0.25-1.67,0.45-3.34,1.91-4.56c-3.45-1.6-4.6-5.11-2.59-7.84c1.16-1.58,3.21-2.62,5.5-2.8L183.86,76.71z"/>
	<g>
		<path d="M188.47,98.42c0.07-0.18,0.1-0.38,0.22-0.52c0.65-0.78,1.35-1.52,1.99-2.31c0.49-0.6,0.8-1.28,0.69-2.09
			c-0.1-0.7-0.49-1.16-1.08-1.26c-0.59-0.1-1.13,0.24-1.44,0.91c0.12,0.05,0.29,0.06,0.34,0.14c0.11,0.18,0.24,0.43,0.19,0.6
			c-0.04,0.14-0.34,0.33-0.49,0.3c-0.17-0.03-0.4-0.26-0.43-0.44c-0.13-0.76,0.54-1.61,1.34-1.79c0.84-0.18,1.76,0.17,2.18,0.84
			c0.45,0.72,0.39,1.63-0.25,2.33c-0.68,0.73-1.43,1.4-2.15,2.1c-0.1,0.1-0.21,0.2-0.3,0.41c0.32,0,0.64,0,0.96,0
			c0.39,0,0.79-0.03,1.18-0.01c0.36,0.02,0.49-0.15,0.54-0.47c0.02-0.16,0.08-0.31,0.12-0.46c0.05,0.01,0.1,0.02,0.15,0.03
			c-0.06,0.56-0.13,1.11-0.19,1.67C190.85,98.42,189.66,98.42,188.47,98.42z"/>
		<path d="M187.95,89.19c1.61,0,3.21,0,4.85,0c0.01,0.14,0.02,0.26,0.03,0.44c-1.65,0-3.27,0-4.88,0
			C187.95,89.48,187.95,89.33,187.95,89.19z"/>
		<path d="M203.6,91.26c0.34,0.31,0.95-0.22,1.08,0.52c-1.16,0-2.27,0-3.38,0c-0.05-0.29-0.05-0.29,0.97-0.46
			c0-0.67,0.01-1.35-0.01-2.03c0-0.13-0.11-0.26-0.19-0.38c-0.62-0.91-1.26-1.81-1.86-2.73c-0.23-0.35-0.47-0.56-0.91-0.48
			c-0.11,0.02-0.23,0-0.36,0c0-0.16,0-0.28,0-0.43c1.1,0,2.18,0,3.31,0c0.01,0.11,0.03,0.24,0.04,0.41
			c-0.27,0.01-0.5,0.02-0.82,0.04c0.66,0.96,1.27,1.86,1.94,2.82c0.63-0.92,1.24-1.81,1.88-2.75c-0.26-0.05-0.47-0.08-0.7-0.13
			c-0.01-0.11-0.02-0.23-0.03-0.39c0.79,0,1.55,0,2.34,0c0,0.13,0,0.25,0,0.4c-0.07,0.01-0.14,0.03-0.21,0.02
			c-0.54-0.06-0.88,0.16-1.17,0.63c-0.54,0.88-1.16,1.7-1.72,2.56c-0.13,0.19-0.2,0.45-0.21,0.68
			C203.58,90.14,203.6,90.72,203.6,91.26z"/>
		<path d="M219.44,85.7c0-0.17,0-0.29,0-0.43c1.11,0,2.19,0,3.31,0c0.01,0.13,0.02,0.25,0.03,0.41c-0.27,0.02-0.5,0.03-0.81,0.05
			c0.66,0.95,1.28,1.86,1.94,2.82c0.63-0.93,1.24-1.81,1.88-2.75c-0.26-0.05-0.47-0.08-0.7-0.12c0-0.12,0-0.24,0-0.39
			c0.77,0,1.53,0,2.32,0c0,0.14,0,0.26,0,0.46c-0.88-0.27-1.22,0.35-1.6,0.93c-0.48,0.74-1.01,1.45-1.49,2.2
			c-0.13,0.21-0.21,0.47-0.23,0.72c-0.03,0.58-0.01,1.16-0.01,1.78c0.34,0,0.66,0,1.01,0c0.02,0.16,0.03,0.28,0.05,0.43
			c-1.14,0-2.25,0-3.38,0c0-0.13,0-0.25,0-0.4c0.33,0,0.63,0,1,0c-0.1-1.02,0.27-2.04-0.51-2.96c-0.59-0.69-1.07-1.48-1.56-2.25
			c-0.23-0.36-0.49-0.54-0.91-0.47C219.69,85.71,219.59,85.7,219.44,85.7z"/>
		<path d="M191.95,85.35c-0.4,0-0.8,0-1.21,0c-0.55,0-1.1,0.01-1.65,0c-0.07,0-0.14-0.09-0.21-0.14c0.06-0.04,0.12-0.11,0.19-0.12
			c0.99-0.18,0.99-0.18,0.99-1.21c0-1.26,0-2.52,0-3.79c0-0.16,0-0.31,0-0.47c-0.38,0.06-0.72,0.12-1.06,0.16
			c-0.05,0.01-0.12-0.08-0.18-0.13c0.05-0.05,0.1-0.15,0.16-0.15c0.6-0.03,1.13-0.22,1.59-0.6c0.03-0.02,0.08,0,0.17,0
			c0.01,0.17,0.04,0.33,0.04,0.5c0,1.64,0,3.28,0,4.92c0,0.69,0.04,0.72,0.74,0.75c0.15,0.01,0.3,0.06,0.45,0.1
			C191.97,85.24,191.96,85.29,191.95,85.35z"/>
		<path d="M237.98,91.18c0-0.15,0-0.3,0-0.45c0-0.48-0.15-0.69-0.62-0.73c-0.52-0.04-1.04-0.03-1.57-0.01
			c-0.09,0-0.23,0.13-0.25,0.22c-0.15,0.51-0.27,1.03-0.41,1.58c0.7,0.03,1.43,0.23,1.66-0.8c0.05,0.05,0.11,0.09,0.16,0.14
			c-0.15,0.58-0.3,1.15-0.45,1.73c-0.28-0.25,0.08-0.74-0.46-0.78c-0.32-0.02-0.64,0-1,0c-0.15,0.62-0.29,1.23-0.45,1.86
			c0.3,0.05,0.54,0.08,0.79,0.12c0,0.04-0.01,0.08-0.01,0.12c-0.71,0-1.41,0-2.2,0c0.11-0.09,0.16-0.16,0.21-0.16
			c0.53,0.06,0.64-0.28,0.74-0.69c0.26-1.1,0.54-2.19,0.82-3.31c-0.23-0.04-0.43-0.08-0.68-0.12c0.29-0.22,2.98-0.29,4.07-0.15
			c-0.05,0.48-0.1,0.96-0.16,1.44C238.1,91.19,238.04,91.18,237.98,91.18z"/>
		<path d="M233.54,84.17c0.08,0.05,0.2,0.09,0.23,0.17c0.05,0.12,0.11,0.31,0.06,0.39c-0.07,0.1-0.26,0.19-0.39,0.17
			c-0.1-0.01-0.2-0.18-0.25-0.29c-0.04-0.08-0.01-0.2,0.02-0.3c0.17-0.66,0.93-1.08,1.7-0.94c0.83,0.15,1.38,0.75,1.21,1.46
			c-0.09,0.38-0.36,0.76-0.64,1.04c-0.47,0.48-1.02,0.89-1.63,1.4c0.66,0,1.21,0.01,1.75-0.01c0.09,0,0.19-0.18,0.26-0.29
			c0.06-0.1,0.09-0.23,0.14-0.34c0.05,0.01,0.09,0.02,0.14,0.04c-0.06,0.39-0.12,0.77-0.18,1.18c-0.92,0-1.83,0-2.83,0
			c0.12-0.17,0.19-0.31,0.29-0.42c0.47-0.48,0.98-0.92,1.4-1.43c0.28-0.34,0.52-0.77,0.64-1.2c0.14-0.51-0.18-0.99-0.63-1.15
			C234.34,83.48,233.84,83.67,233.54,84.17z"/>
		<path d="M195.24,89.36c0-1.36,0-2.73,0-4.09c0-0.1-0.02-0.21,0.01-0.3c0.04-0.13,0.13-0.25,0.19-0.38
			c0.06,0.13,0.17,0.26,0.17,0.39c0.01,2.95,0.01,5.89,0,8.84c0,0.12-0.12,0.25-0.19,0.37c-0.06-0.13-0.17-0.25-0.18-0.38
			C195.24,92.32,195.24,90.84,195.24,89.36z"/>
		<path d="M197.1,89.36c0-1.39,0-2.79,0-4.18c0-0.1-0.02-0.21,0.01-0.3c0.04-0.11,0.13-0.19,0.19-0.29c0.06,0.1,0.14,0.2,0.18,0.3
			c0.03,0.08,0.01,0.17,0.01,0.26c0,2.83,0,5.66,0,8.49c0,0.06,0.02,0.12,0,0.17c-0.06,0.13-0.13,0.25-0.19,0.37
			c-0.06-0.13-0.18-0.26-0.18-0.38C197.1,92.32,197.1,90.84,197.1,89.36z"/>
		<path d="M229.61,89.4c0,1.42,0,2.84,0,4.27c0,0.1,0.02,0.21-0.01,0.3c-0.03,0.08-0.11,0.14-0.17,0.21
			c-0.06-0.06-0.16-0.12-0.18-0.19c-0.03-0.11-0.02-0.23-0.02-0.35c0-2.83,0-5.66,0.01-8.49c0-0.19,0.11-0.38,0.17-0.57
			c0.07,0.18,0.18,0.36,0.19,0.55C229.62,86.55,229.61,87.98,229.61,89.4z"/>
		<path d="M231.09,89.4c0-1.39,0-2.79,0-4.18c0-0.1-0.02-0.21,0.01-0.3c0.04-0.12,0.13-0.22,0.19-0.33
			c0.06,0.12,0.13,0.23,0.18,0.35c0.02,0.06,0.01,0.14,0.01,0.22c0,2.83,0,5.66,0,8.49c0,0.06,0.02,0.12,0,0.17
			c-0.06,0.13-0.13,0.25-0.19,0.37c-0.06-0.13-0.18-0.26-0.18-0.39C231.09,92.34,231.09,90.87,231.09,89.4z"/>
		<path d="M213.31,89.19c0.84,0,1.68-0.01,2.53,0.01c0.13,0,0.26,0.11,0.4,0.17c-0.13,0.07-0.27,0.2-0.4,0.2
			c-1.68,0.01-3.37,0.01-5.05,0c-0.13,0-0.27-0.11-0.4-0.17c0.13-0.07,0.27-0.2,0.4-0.2C211.62,89.18,212.47,89.19,213.31,89.19z"/>
		<path d="M222.06,84.07c0.53-0.42,1.01-0.81,1.51-1.21c0.51,0.41,0.99,0.79,1.5,1.2c-0.09,0.12-0.16,0.23-0.26,0.36
			c-0.34-0.22-0.67-0.4-0.97-0.62c-0.2-0.14-0.35-0.13-0.54,0c-0.3,0.22-0.63,0.41-0.96,0.62
			C222.24,84.31,222.17,84.21,222.06,84.07z"/>
	</g>
</g>
<g>
	<circle class="st1" cx="22.67" cy="41.97" r="7.2"/>
	<path d="M21.71,38.08c-0.13,0.28-0.2,0.63-0.41,0.82c-0.84,0.78-1.71,1.51-2.58,2.25c-0.4,0.34-0.83,0.66-1.35,1.08
		c1.05,0,1.97,0.04,2.88-0.02c0.25-0.02,0.48-0.32,0.72-0.48c0.15-0.1,0.31-0.18,0.52-0.29c0.07,1.35-1.64,2.5-2.73,1.96
		c-0.14-0.07-0.28-0.16-0.41-0.25c-0.85-0.56-1.13-0.53-1.85,0.19c-0.13,0.13-0.32,0.18-0.49,0.27c-0.05-0.05-0.09-0.1-0.14-0.15
		c0.1-0.19,0.17-0.41,0.32-0.55c0.84-0.77,1.69-1.54,2.55-2.29c0.45-0.39,0.94-0.75,1.39-1.19c-0.96-0.01-1.91-0.21-2.82,0.19
		c-0.1,0.04-0.3,0.06-0.34,0.01c-0.07-0.1-0.1-0.31-0.05-0.38c0.4-0.41,0.83-0.79,1.25-1.18c0.25,0,0.5,0,0.75,0
		c0.32,0.21,0.64,0.42,0.97,0.64c0.43,0.28,0.8,0.22,1.1-0.2c0.1-0.14,0.2-0.29,0.29-0.44C21.43,38.08,21.57,38.08,21.71,38.08z"/>
	<path d="M23.11,45.28c-0.12-0.39,0.2-0.25,0.37-0.32c0.2-0.09,0.49-0.21,0.54-0.38c0.41-1.48,0.77-2.96,1.16-4.49
		c-0.29-0.06-0.54-0.11-0.79-0.16c0.01-0.05,0.02-0.11,0.03-0.16c1.66,0,3.31,0,5.06,0c-0.06,0.58-0.13,1.17-0.19,1.76
		c-0.07,0-0.14,0-0.21,0c-0.01-0.19-0.03-0.38-0.03-0.57c-0.01-0.6-0.17-0.86-0.75-0.91C27.6,40,26.9,40.02,26.2,40.03
		c-0.1,0-0.25,0.14-0.28,0.24c-0.17,0.6-0.32,1.2-0.49,1.88c0.49,0,0.96,0.11,1.34-0.03c0.34-0.13,0.58-0.53,1-0.94
		c-0.21,0.85-0.4,1.56-0.59,2.32C27.05,43.41,27,43.4,27,43.38c-0.07-0.27-0.08-0.75-0.2-0.78c-0.44-0.11-0.91-0.08-1.37-0.08
		c-0.05,0-0.13,0.15-0.16,0.25c-0.18,0.71-0.35,1.42-0.53,2.15c0.84,0,1.64,0.05,2.43-0.02c0.76-0.07,1.15-0.64,1.46-1.28
		c0.09-0.19,0.22-0.36,0.33-0.53c0.06,0.03,0.12,0.07,0.18,0.1c-0.32,0.7-0.65,1.39-0.97,2.09C26.48,45.28,24.79,45.28,23.11,45.28z
		"/>
	<path class="st2" d="M21.28,38.08c-0.1,0.15-0.19,0.29-0.29,0.44c-0.3,0.42-0.67,0.48-1.1,0.2c-0.32-0.21-0.64-0.42-0.97-0.64
		C19.71,38.08,20.49,38.08,21.28,38.08z"/>
</g>
<path class="st0" d="M42.86,43.81L44.77,42l-1.9-1.87L42.86,43.81z M29.87,42.41l13.31,0.18l0-1.23l-13.31-0.18L29.87,42.41z"/>
<g>
	<circle class="st1" cx="133.62" cy="41.97" r="7.2"/>
	<path d="M130.02,38.44c2.16,0,4.32,0,6.53,0c0.11,0.84,0.22,1.66,0.33,2.52c-0.17,0.01-0.31,0.02-0.44,0.03
		c-0.03-0.07-0.06-0.11-0.07-0.15c-0.04-0.19-0.07-0.37-0.11-0.56c-0.17-0.73-0.59-1.23-1.37-1.29c-0.72-0.06-1.44-0.07-2.19-0.1
		c0,0.94,0,1.82,0,2.69c1.08,0.25,1.5-0.02,1.68-1.13c0.13-0.01,0.27-0.02,0.44-0.03c0,0.98,0,1.93,0,2.91c-0.14,0-0.27,0-0.3,0
		c-0.21-0.39-0.32-0.85-0.61-1.04c-0.3-0.2-0.77-0.15-1.21-0.22c0,1.03,0,1.99,0,3.03c0.85-0.05,1.69-0.05,2.51-0.16
		c0.75-0.11,1.14-0.67,1.34-1.38c0.08-0.27,0.13-0.55,0.19-0.84c0.17-0.01,0.32-0.02,0.48-0.02c0,0.09,0,0.19,0,0.28
		c-0.16,0.85-0.32,1.71-0.47,2.56c-2.24,0-4.48,0-6.73,0c0-0.16,0-0.32,0-0.47c0.37,0,0.74,0,1.12,0c0-2.09,0-4.11,0-6.16
		c-0.4,0-0.76,0-1.12,0C130.02,38.75,130.02,38.6,130.02,38.44z"/>
	<path class="st2" d="M130.02,38.91c0.36,0,0.72,0,1.12,0c0,2.06,0,4.07,0,6.16c-0.37,0-0.74,0-1.12,0
		C130.02,43.02,130.02,40.97,130.02,38.91z"/>
	<path class="st2" d="M136.74,45.55c0.16-0.85,0.32-1.71,0.47-2.56c0,0.85,0,1.71,0,2.56C137.06,45.55,136.9,45.55,136.74,45.55z"/>
	<path d="M131.95,37.05c0.51-0.41,0.97-0.8,1.45-1.15c0.09-0.06,0.3-0.06,0.39,0.01c0.48,0.36,0.94,0.74,1.43,1.14
		c-0.09,0.13-0.18,0.25-0.28,0.39c-0.37-0.24-0.73-0.44-1.06-0.67c-0.21-0.15-0.38-0.14-0.59,0.01c-0.33,0.24-0.68,0.44-1.04,0.67
		C132.15,37.3,132.06,37.19,131.95,37.05z"/>
</g>
<g>
	<text transform="matrix(1 0 0 1 188.8385 21.4169)" class="st3 st6">EDIP Loss</text>
	<g>
		<path d="M185.46,43.09c0.07-0.17,0.1-0.37,0.21-0.5c0.63-0.75,1.3-1.47,1.92-2.22c0.47-0.58,0.77-1.23,0.66-2.01
			c-0.1-0.68-0.47-1.12-1.04-1.21c-0.57-0.09-1.09,0.23-1.39,0.88c0.11,0.04,0.28,0.06,0.33,0.14c0.1,0.18,0.23,0.41,0.19,0.58
			c-0.04,0.14-0.33,0.32-0.47,0.29c-0.16-0.03-0.39-0.25-0.41-0.42c-0.13-0.73,0.52-1.55,1.29-1.72c0.81-0.18,1.7,0.17,2.1,0.81
			c0.44,0.7,0.38,1.58-0.24,2.25c-0.65,0.71-1.38,1.35-2.07,2.03c-0.1,0.1-0.21,0.19-0.29,0.39c0.29,0,0.58,0,0.88,0
			c0.41,0,0.81-0.03,1.22-0.01c0.31,0.01,0.42-0.14,0.47-0.41c0.03-0.16,0.08-0.32,0.13-0.48c0.05,0.01,0.1,0.02,0.15,0.03
			c-0.06,0.54-0.12,1.07-0.18,1.61C187.75,43.09,186.61,43.09,185.46,43.09z"/>
		<path d="M184.95,34.18c1.55,0,3.1,0,4.68,0c0.01,0.14,0.02,0.25,0.03,0.42c-1.59,0-3.15,0-4.71,0
			C184.95,34.46,184.95,34.32,184.95,34.18z"/>
		<path d="M221.24,30.43c0.09,0.74,0.19,1.46,0.28,2.21c-0.16,0.01-0.28,0.01-0.39,0.02c-0.02-0.06-0.04-0.1-0.05-0.13
			c-0.05-0.22-0.09-0.44-0.15-0.65c-0.16-0.55-0.51-0.91-1.09-0.97c-0.66-0.06-1.33-0.08-2.02-0.11c0,0.85,0,1.63,0,2.4
			c1.01,0.19,1.31-0.01,1.51-1.01c0.12,0,0.24,0,0.38,0c0,0.86,0,1.7,0,2.56c-0.14,0-0.26,0-0.37,0c-0.18-1.01-0.43-1.18-1.52-1.03
			c0,0.83,0,1.66,0,2.61c0.79-0.06,1.57-0.05,2.33-0.2c0.83-0.16,1.06-0.88,1.18-1.61c0.05-0.32,0.19-0.39,0.49-0.29
			c-0.14,0.82-0.28,1.63-0.42,2.45c-1.97,0-3.93,0-5.9,0c-0.08-0.28-0.04-0.44,0.29-0.41c0.21,0.02,0.41,0,0.65,0
			c0-1.82,0-3.61,0-5.43c-0.31,0-0.61,0-0.95,0c-0.01-0.16-0.02-0.27-0.03-0.41C217.4,30.43,219.29,30.43,221.24,30.43z"/>
		<path d="M229.8,36.69c-1.03,0-2.05,0-3.08,0c0-0.12,0-0.23,0-0.38c0.26,0,0.52,0,0.85,0c-0.2-0.49-0.37-0.92-0.55-1.37
			c-0.77,0-1.53-0.01-2.28,0.01c-0.1,0-0.24,0.09-0.28,0.17c-0.16,0.34-0.29,0.69-0.45,1.1c0.29,0.03,0.53,0.06,0.81,0.09
			c0.01,0.11,0.02,0.22,0.03,0.37c-0.78,0-1.52,0-2.27,0c-0.1-0.28-0.02-0.43,0.28-0.39c0.46,0.06,0.66-0.16,0.82-0.57
			c0.67-1.69,1.37-3.36,2.07-5.04c0.07-0.18,0.3-0.43,0.41-0.41c0.18,0.04,0.38,0.24,0.46,0.43c0.71,1.7,1.41,3.4,2.09,5.12
			c0.14,0.36,0.32,0.55,0.72,0.48C229.71,36.25,229.92,36.3,229.8,36.69z M225.77,31.92c-0.38,0.93-0.71,1.73-1.04,2.56
			c0.73,0,1.38,0,2.1,0C226.48,33.64,226.15,32.84,225.77,31.92z"/>
		<path d="M198.78,30.82c-0.27,0-0.48,0-0.79,0c0.64,0.94,1.24,1.81,1.88,2.74c0.61-0.89,1.2-1.75,1.81-2.65
			c-0.25-0.04-0.46-0.08-0.68-0.12c0-0.11,0-0.23,0-0.37c0.74,0,1.48,0,2.23,0c0,0.14,0,0.26,0,0.44c-0.86-0.26-1.18,0.34-1.54,0.9
			c-0.48,0.72-0.98,1.43-1.46,2.15c-0.11,0.18-0.19,0.41-0.2,0.61c-0.03,0.57-0.01,1.14-0.01,1.75c0.33,0,0.64,0,0.97,0
			c0.02,0.15,0.03,0.27,0.05,0.42c-1.1,0-2.17,0-3.26,0c0-0.13,0-0.24,0-0.39c0.32,0,0.61,0,0.97,0c-0.1-0.99,0.26-1.97-0.49-2.85
			c-0.57-0.66-1.03-1.43-1.5-2.17c-0.22-0.35-0.47-0.52-0.88-0.45c-0.09,0.02-0.19,0-0.32,0c-0.01-0.13-0.03-0.25-0.04-0.4
			c1.08,0,2.13,0,3.23,0C198.76,30.53,198.77,30.65,198.78,30.82z"/>
		<path d="M186.99,24.98c-0.37,0.06-0.7,0.12-1.03,0.16c-0.05,0.01-0.11-0.08-0.17-0.13c0.04-0.05,0.07-0.14,0.11-0.14
			c0.61-0.01,1.14-0.24,1.62-0.59c0.02-0.01,0.05,0.01,0.13,0.02c0.01,0.15,0.04,0.31,0.04,0.48c0,1.57,0,3.13,0,4.7
			c0,0.71,0.03,0.73,0.72,0.76c0.07,0,0.15-0.01,0.21,0.01c0.08,0.03,0.14,0.09,0.21,0.13c-0.07,0.04-0.14,0.12-0.21,0.12
			c-0.24,0.01-0.47,0-0.71,0c-0.6,0-1.2,0.01-1.8,0c-0.08,0-0.16-0.09-0.24-0.14c0.07-0.04,0.15-0.11,0.22-0.12
			c1.05-0.04,0.9-0.07,0.91-1.04c0.01-1.26,0-2.52,0-3.77C186.99,25.27,186.99,25.12,186.99,24.98z"/>
		<path d="M236.63,38.76c0.3,0.05,0.53,0.09,0.76,0.13c0,0.04-0.01,0.08-0.01,0.12c-0.68,0-1.36,0-2.03,0
			c-0.01-0.03-0.02-0.05-0.03-0.08c0.12-0.04,0.26-0.05,0.37-0.11c0.14-0.08,0.35-0.17,0.38-0.29c0.31-1.15,0.59-2.3,0.87-3.45
			c0.01-0.02-0.02-0.05-0.03-0.09c-0.18-0.04-0.37-0.07-0.56-0.11c0-0.04,0.01-0.09,0.01-0.13c1.27,0,2.53,0,3.86,0
			c-0.05,0.46-0.11,0.91-0.16,1.37c-0.06,0-0.12-0.01-0.18-0.01c0-0.17-0.01-0.34,0-0.51c0.02-0.38-0.18-0.6-0.53-0.63
			c-0.53-0.04-1.06-0.03-1.59-0.03c-0.07,0-0.19,0.09-0.21,0.15c-0.15,0.52-0.27,1.04-0.41,1.59c0.7,0.05,1.38,0.18,1.62-0.77
			c0.05,0.04,0.09,0.09,0.14,0.13c-0.14,0.56-0.28,1.11-0.43,1.67c-0.04,0-0.08-0.01-0.13-0.01c-0.01-0.08-0.05-0.17-0.03-0.24
			c0.11-0.39-0.09-0.51-0.43-0.51c-0.26,0-0.53,0-0.81,0C236.92,37.56,236.78,38.14,236.63,38.76z"/>
		<path d="M235.2,32.89c0.12-0.17,0.19-0.3,0.29-0.4c0.45-0.46,0.94-0.88,1.35-1.38c0.27-0.32,0.5-0.71,0.62-1.11
			c0.15-0.51-0.15-0.99-0.59-1.15c-0.48-0.18-0.95,0-1.26,0.49c0.07,0.04,0.17,0.07,0.19,0.13c0.06,0.13,0.14,0.3,0.09,0.4
			c-0.05,0.1-0.25,0.2-0.36,0.17c-0.1-0.02-0.2-0.19-0.25-0.32c-0.03-0.08,0-0.19,0.03-0.28c0.18-0.63,0.88-1.01,1.62-0.87
			c0.79,0.14,1.31,0.68,1.18,1.36c-0.07,0.38-0.33,0.76-0.61,1.05c-0.45,0.47-0.98,0.86-1.57,1.35c0.64,0,1.16,0.01,1.68-0.01
			c0.09,0,0.19-0.16,0.25-0.27c0.06-0.1,0.09-0.22,0.13-0.34c0.05,0.01,0.1,0.02,0.14,0.03c-0.06,0.37-0.11,0.74-0.17,1.14
			C237.06,32.89,236.18,32.89,235.2,32.89z"/>
		<path d="M192.35,34.42c0,1.4,0.01,2.8-0.01,4.2c0,0.13-0.12,0.26-0.19,0.38c-0.05-0.13-0.16-0.25-0.16-0.38
			c-0.01-2.83-0.01-5.65,0-8.48c0-0.13,0.13-0.26,0.2-0.39c0.05,0.13,0.15,0.26,0.15,0.39C192.35,31.57,192.35,32.99,192.35,34.42z"
			/>
		<path d="M194.15,34.4c0,1.34,0,2.68,0,4.03c0,0.11,0.02,0.23-0.01,0.33c-0.03,0.09-0.11,0.16-0.17,0.25
			c-0.06-0.08-0.15-0.15-0.18-0.24c-0.03-0.07-0.01-0.17-0.01-0.25c0-2.75,0-5.51,0.01-8.26c0-0.17,0.11-0.33,0.17-0.5
			c0.06,0.16,0.18,0.32,0.18,0.49C194.15,31.63,194.15,33.01,194.15,34.4z"/>
		<path d="M231.82,34.36c0,1.41,0,2.83-0.01,4.24c0,0.13-0.11,0.27-0.18,0.4c-0.06-0.14-0.17-0.27-0.17-0.41
			c-0.01-2.8-0.01-5.59-0.01-8.39c0-0.04-0.01-0.09,0-0.12c0.06-0.11,0.12-0.22,0.18-0.32c0.06,0.11,0.17,0.22,0.17,0.33
			c0.01,0.92,0.01,1.85,0.01,2.77C231.82,33.35,231.82,33.86,231.82,34.36z"/>
		<path d="M233.62,34.39c0,1.34,0,2.69,0,4.03c0,0.11,0.02,0.23-0.01,0.33c-0.03,0.09-0.11,0.17-0.16,0.25
			c-0.06-0.08-0.15-0.15-0.18-0.23c-0.03-0.07-0.01-0.17-0.01-0.25c0-2.76,0-5.51,0.01-8.27c0-0.17,0.11-0.33,0.17-0.5
			c0.06,0.16,0.18,0.32,0.18,0.49C233.63,31.62,233.62,33.01,233.62,34.39z"/>
		<path d="M209.35,34.18c0.83,0,1.65-0.01,2.48,0.01c0.13,0,0.25,0.11,0.38,0.16c-0.13,0.07-0.26,0.19-0.39,0.19
			c-1.62,0.01-3.24,0.01-4.87,0c-0.13,0-0.25-0.11-0.38-0.16c0.13-0.07,0.26-0.19,0.39-0.19C207.76,34.17,208.56,34.18,209.35,34.18
			z"/>
		<path d="M220.07,29.26c-0.1,0.12-0.18,0.22-0.28,0.33c-0.32-0.2-0.63-0.38-0.93-0.59c-0.19-0.14-0.34-0.12-0.52,0.01
			c-0.29,0.21-0.61,0.39-0.92,0.59c-0.09-0.12-0.16-0.22-0.26-0.35c0.45-0.36,0.87-0.71,1.32-1.04c0.06-0.05,0.24-0.02,0.31,0.03
			C219.21,28.56,219.62,28.9,220.07,29.26z"/>
		<path d="M227.62,28.14c-0.28,0.75-0.8,1-1.39,0.67c-0.56-0.31-1.04-0.34-1.53,0.23c0.07-0.57,0.67-0.99,1.09-0.88
			c0.05,0.01,0.11,0.03,0.16,0.06C226.51,28.54,227.06,28.78,227.62,28.14z"/>
		<path class="st2" d="M225.77,31.92c0.38,0.92,0.7,1.72,1.05,2.56c-0.72,0-1.37,0-2.1,0C225.07,33.66,225.39,32.85,225.77,31.92z"
			/>
	</g>
	<path class="st7" d="M182.36,22.68c-0.84-5.32,3.47-10.22,9.62-10.94c2.49-0.29,5.03,0.15,7.2,1.24c2.3-3.75,7.67-5.17,12-3.18
		c0.76,0.35,1.45,0.79,2.06,1.31c1.79-3.11,6.15-4.37,9.74-2.82c0.99,0.43,1.86,1.05,2.53,1.81c2.89-2.94,7.99-3.3,11.39-0.81
		c1.43,1.05,2.4,2.49,2.73,4.08c4.73,1.12,7.52,5.34,6.23,9.44c-0.11,0.34-0.24,0.68-0.41,1.01c3.79,4.27,2.86,10.39-2.07,13.67
		c-1.54,1.02-3.35,1.68-5.27,1.92c-0.04,4.6-4.39,8.29-9.71,8.25c-1.78-0.01-3.51-0.45-5.02-1.26c-1.8,5.15-8.07,8.06-14.01,6.5
		c-2.49-0.65-4.64-2.04-6.09-3.91c-6.08,3.17-13.98,1.47-17.63-3.81c-0.05-0.07-0.09-0.13-0.14-0.2c-3.98,0.4-7.59-2.05-8.05-5.49
		c-0.25-1.83,0.45-3.66,1.91-5.01c-3.45-1.76-4.6-5.61-2.59-8.6c1.16-1.73,3.21-2.87,5.5-3.08L182.36,22.68z"/>
</g>
<path class="st0" d="M42.4,125.21l1.87-1.81l-1.85-1.87L42.4,125.21z M29.72,123.8l12.99,0.18l0-1.23l-12.99-0.18L29.72,123.8z"/>
<g>
	<circle class="st1" cx="22.52" cy="123.37" r="7.2"/>
	<path d="M22.09,119.77c-0.13,0.28-0.2,0.63-0.41,0.82c-0.84,0.78-1.71,1.51-2.58,2.25c-0.4,0.34-0.83,0.66-1.35,1.08
		c1.05,0,1.97,0.04,2.88-0.02c0.25-0.02,0.48-0.32,0.72-0.48c0.15-0.1,0.31-0.18,0.52-0.29c0.07,1.35-1.64,2.5-2.74,1.96
		c-0.14-0.07-0.28-0.16-0.41-0.25c-0.85-0.56-1.13-0.53-1.85,0.19c-0.13,0.13-0.32,0.18-0.49,0.27c-0.05-0.05-0.09-0.1-0.14-0.15
		c0.1-0.19,0.17-0.41,0.32-0.55c0.84-0.77,1.69-1.54,2.55-2.28c0.45-0.39,0.94-0.75,1.39-1.19c-0.96-0.01-1.91-0.21-2.82,0.19
		c-0.1,0.05-0.3,0.06-0.34,0.01c-0.07-0.1-0.1-0.31-0.05-0.38c0.4-0.41,0.83-0.79,1.25-1.18c0.25,0,0.5,0,0.75,0
		c0.32,0.21,0.65,0.42,0.97,0.64c0.43,0.28,0.8,0.22,1.1-0.2c0.1-0.14,0.2-0.29,0.29-0.44C21.8,119.77,21.95,119.77,22.09,119.77z"
		/>
	<path d="M23.38,126.96c0.05-0.11,0.1-0.3,0.16-0.3c0.61-0.03,0.89-0.48,1.17-0.92c0.89-1.38,1.78-2.77,2.67-4.15
		c0.06-0.09,0.1-0.2,0.18-0.27c0.11-0.1,0.24-0.17,0.37-0.26c0.06,0.12,0.15,0.24,0.17,0.36c0.15,0.97,0.29,1.95,0.43,2.92
		c0.07,0.46,0.19,0.92,0.19,1.38c0.01,0.63,0.22,1,0.89,1.02c-0.07,0.07-0.14,0.2-0.22,0.21c-0.72,0.02-1.43,0.01-2.15,0.01
		c0.09-0.1,0.19-0.29,0.28-0.29c0.47,0,0.52-0.26,0.45-0.64c-0.06-0.29-0.11-0.59-0.17-0.91c-0.73,0-1.42-0.01-2.12,0.01
		c-0.13,0-0.3,0.1-0.38,0.21c-0.19,0.23-0.35,0.5-0.51,0.76c-0.14,0.23-0.26,0.46,0.16,0.56c0.07,0.02,0.09,0.2,0.14,0.31
		C24.53,126.96,23.95,126.96,23.38,126.96z M25.67,124.79c0.76,0,1.42,0,2.12,0c-0.13-0.87-0.25-1.72-0.39-2.7
		C26.78,123.06,26.25,123.89,25.67,124.79z"/>
	<path class="st2" d="M25.1,126.96c-0.04-0.11-0.07-0.29-0.14-0.31c-0.42-0.1-0.3-0.33-0.16-0.56c0.16-0.26,0.32-0.52,0.51-0.76
		c0.09-0.11,0.25-0.21,0.38-0.21c0.7-0.02,1.39-0.01,2.12-0.01c0.06,0.33,0.11,0.62,0.17,0.91c0.07,0.37,0.02,0.63-0.45,0.64
		c-0.1,0-0.19,0.19-0.28,0.29C26.53,126.96,25.82,126.96,25.1,126.96z"/>
	<path class="st2" d="M21.66,119.77c-0.1,0.15-0.19,0.29-0.29,0.44c-0.3,0.42-0.67,0.48-1.1,0.2c-0.32-0.21-0.64-0.42-0.97-0.64
		C20.08,119.77,20.87,119.77,21.66,119.77z"/>
	<path class="st2" d="M25.67,124.79c0.57-0.9,1.1-1.73,1.72-2.7c0.14,0.99,0.27,1.83,0.39,2.7
		C27.09,124.79,26.44,124.79,25.67,124.79z"/>
</g>
<g>
	<circle class="st1" cx="134.01" cy="123.37" r="7.2"/>
	<path d="M137.57,126.75c-1,0-2.01,0-3.04,0c0-0.12,0-0.23,0-0.39c0.27,0,0.52,0,0.83,0c-0.18-0.43-0.32-0.82-0.49-1.19
		c-0.03-0.07-0.17-0.14-0.26-0.14c-0.75-0.01-1.49-0.01-2.25-0.01c-0.17,0.41-0.33,0.8-0.52,1.26c0.29,0.04,0.54,0.07,0.81,0.11
		c0,0.12,0,0.23,0,0.36c-0.75,0-1.48,0-2.21,0c-0.11-0.31,0-0.44,0.3-0.39c0.44,0.06,0.63-0.17,0.78-0.55
		c0.67-1.68,1.36-3.35,2.06-5.01c0.07-0.17,0.27-0.36,0.44-0.38c0.12-0.01,0.33,0.21,0.4,0.37c0.7,1.67,1.39,3.34,2.05,5.02
		c0.16,0.41,0.34,0.66,0.82,0.57C137.6,126.31,137.66,126.48,137.57,126.75z M133.59,122.05c-0.38,0.92-0.7,1.71-1.03,2.53
		c0.72,0,1.36,0,2.07,0C134.29,123.75,133.96,122.96,133.59,122.05z"/>
	<path d="M135.43,119.34c-0.1,0.12-0.18,0.21-0.27,0.32c-0.31-0.19-0.61-0.36-0.88-0.56c-0.22-0.16-0.38-0.14-0.59,0.01
		c-0.28,0.2-0.57,0.37-0.88,0.56c-0.09-0.12-0.16-0.22-0.26-0.35c0.44-0.35,0.86-0.7,1.3-1.03c0.06-0.05,0.24-0.02,0.31,0.03
		C134.58,118.64,134.98,118.98,135.43,119.34z"/>
	<path class="st2" d="M133.59,122.05c0.37,0.91,0.7,1.7,1.04,2.53c-0.71,0-1.35,0-2.07,0C132.89,123.76,133.22,122.97,133.59,122.05
		z"/>
</g>
<g>
	<text transform="matrix(1 0 0 1 190.7481 135.3072)" class="st3 st6">ADIP Loss</text>
	<path class="st7" d="M184.28,136.57c-0.84-5.32,3.47-10.22,9.62-10.94c2.49-0.29,5.03,0.15,7.2,1.24c2.3-3.75,7.67-5.17,12-3.18
		c0.76,0.35,1.45,0.79,2.06,1.31c1.79-3.11,6.15-4.37,9.74-2.82c0.99,0.43,1.86,1.05,2.53,1.81c2.89-2.94,7.99-3.3,11.39-0.81
		c1.43,1.05,2.4,2.49,2.73,4.08c4.73,1.12,7.52,5.34,6.23,9.44c-0.11,0.34-0.24,0.68-0.41,1.01c3.79,4.27,2.86,10.39-2.07,13.67
		c-1.54,1.02-3.35,1.68-5.27,1.92c-0.04,4.6-4.39,8.29-9.71,8.25c-1.78-0.01-3.51-0.45-5.02-1.26c-1.8,5.15-8.07,8.06-14.01,6.5
		c-2.49-0.65-4.64-2.04-6.09-3.91c-6.08,3.17-13.98,1.47-17.63-3.81c-0.05-0.07-0.09-0.13-0.14-0.2c-3.98,0.4-7.59-2.05-8.05-5.49
		c-0.25-1.83,0.45-3.66,1.91-5.01c-3.45-1.76-4.6-5.61-2.59-8.6c1.16-1.73,3.21-2.87,5.5-3.08L184.28,136.57z"/>
	<g>
		<path d="M186.59,156.66c0.07-0.17,0.1-0.37,0.21-0.5c0.63-0.75,1.3-1.47,1.92-2.22c0.47-0.58,0.77-1.23,0.66-2.01
			c-0.1-0.68-0.47-1.12-1.04-1.21c-0.57-0.09-1.09,0.23-1.39,0.88c0.11,0.04,0.28,0.06,0.33,0.14c0.1,0.18,0.23,0.41,0.18,0.58
			c-0.04,0.14-0.33,0.32-0.47,0.29c-0.16-0.03-0.38-0.25-0.41-0.42c-0.12-0.73,0.52-1.55,1.29-1.72c0.82-0.18,1.73,0.18,2.13,0.85
			c0.41,0.69,0.34,1.55-0.26,2.21c-0.65,0.71-1.38,1.35-2.07,2.03c-0.1,0.1-0.2,0.19-0.41,0.39c0.41,0,0.7,0,0.99,0
			c0.41,0,0.81-0.03,1.22-0.01c0.31,0.01,0.42-0.14,0.47-0.41c0.03-0.16,0.08-0.32,0.13-0.48c0.05,0.01,0.1,0.02,0.15,0.03
			c-0.06,0.54-0.12,1.07-0.18,1.61C188.89,156.66,187.74,156.66,186.59,156.66z"/>
		<path d="M186.09,147.76c1.55,0,3.1,0,4.68,0c0.01,0.14,0.02,0.25,0.03,0.42c-1.59,0-3.15,0-4.71,0
			C186.09,148.04,186.09,147.9,186.09,147.76z"/>
		<path d="M222.37,144c0.09,0.74,0.19,1.46,0.28,2.21c-0.16,0.01-0.27,0.01-0.39,0.02c-0.02-0.06-0.04-0.1-0.05-0.13
			c-0.05-0.22-0.09-0.44-0.15-0.65c-0.16-0.55-0.51-0.91-1.09-0.97c-0.66-0.06-1.33-0.08-2.02-0.11c0,0.85,0,1.63,0,2.4
			c1.01,0.19,1.31-0.01,1.51-1.01c0.12,0,0.24,0,0.38,0c0,0.86,0,1.7,0,2.56c-0.14,0-0.26,0-0.37,0c-0.18-1.01-0.43-1.18-1.52-1.03
			c0,0.83,0,1.66,0,2.61c0.79-0.06,1.57-0.05,2.33-0.2c0.83-0.16,1.06-0.88,1.18-1.61c0.05-0.32,0.18-0.41,0.49-0.28
			c-0.14,0.81-0.28,1.62-0.42,2.45c-1.97,0-3.93,0-5.9,0c-0.08-0.29-0.04-0.44,0.3-0.41c0.21,0.02,0.41,0,0.64,0
			c0-1.82,0-3.61,0-5.43c-0.31,0-0.61,0-0.95,0c-0.01-0.15-0.02-0.27-0.03-0.41C218.53,144,220.43,144,222.37,144z"/>
		<path d="M230.93,150.26c-1.03,0-2.05,0-3.08,0c0-0.12,0-0.23,0-0.38c0.26,0,0.51,0,0.85,0c-0.2-0.49-0.37-0.92-0.55-1.37
			c-0.77,0-1.53-0.01-2.28,0.01c-0.1,0-0.24,0.09-0.28,0.17c-0.16,0.34-0.29,0.69-0.45,1.1c0.29,0.03,0.53,0.06,0.81,0.09
			c0.01,0.11,0.02,0.22,0.03,0.37c-0.78,0-1.52,0-2.27,0c-0.1-0.28-0.02-0.43,0.28-0.39c0.46,0.06,0.66-0.16,0.82-0.57
			c0.67-1.69,1.37-3.36,2.07-5.04c0.07-0.18,0.25-0.38,0.42-0.42c0.3-0.08,0.37,0.22,0.46,0.43c0.7,1.71,1.4,3.41,2.08,5.12
			c0.14,0.36,0.32,0.55,0.72,0.48C230.84,149.82,231.05,149.87,230.93,150.26z M226.91,145.5c-0.38,0.93-0.71,1.73-1.05,2.56
			c0.73,0,1.38,0,2.1,0C227.61,147.22,227.28,146.42,226.91,145.5z"/>
		<path d="M199.92,144.39c-0.27,0-0.48,0-0.8,0c0.64,0.94,1.24,1.81,1.88,2.74c0.61-0.89,1.2-1.75,1.81-2.65
			c-0.26-0.04-0.46-0.08-0.68-0.12c0-0.11,0-0.23,0-0.37c0.74,0,1.48,0,2.23,0c0,0.14,0,0.26,0,0.44c-0.86-0.27-1.18,0.34-1.54,0.9
			c-0.48,0.72-0.98,1.43-1.46,2.15c-0.11,0.18-0.19,0.41-0.2,0.61c-0.03,0.57-0.01,1.14-0.01,1.75c0.33,0,0.63,0,0.97,0
			c0.02,0.15,0.03,0.27,0.05,0.42c-1.1,0-2.17,0-3.25,0c0-0.13,0-0.24,0-0.39c0.32,0,0.61,0,0.97,0c-0.1-0.99,0.26-1.97-0.49-2.85
			c-0.57-0.66-1.03-1.43-1.5-2.17c-0.22-0.35-0.47-0.52-0.88-0.45c-0.09,0.02-0.19,0-0.32,0c-0.01-0.13-0.03-0.25-0.04-0.4
			c1.08,0,2.13,0,3.22,0C199.9,144.11,199.91,144.22,199.92,144.39z"/>
		<path d="M188.12,138.55c-0.37,0.06-0.7,0.12-1.03,0.16c-0.05,0.01-0.11-0.08-0.17-0.12c0.04-0.05,0.07-0.14,0.11-0.14
			c0.61-0.01,1.14-0.24,1.62-0.59c0.02-0.01,0.05,0.01,0.13,0.01c0.01,0.15,0.04,0.31,0.04,0.48c0,1.55,0,3.1,0,4.65
			c0,0.77,0.01,0.78,0.76,0.8c0.06,0,0.12-0.01,0.17,0.01c0.08,0.03,0.14,0.09,0.21,0.13c-0.07,0.04-0.14,0.12-0.21,0.12
			c-0.24,0.01-0.47,0-0.71,0c-0.6,0-1.2,0.01-1.8,0c-0.08,0-0.16-0.09-0.24-0.14c0.07-0.04,0.15-0.11,0.22-0.12
			c1.05-0.04,0.9-0.08,0.91-1.04c0.01-1.26,0-2.52,0-3.77C188.12,138.85,188.12,138.7,188.12,138.55z"/>
		<path d="M237.77,152.33c0.3,0.05,0.53,0.09,0.76,0.13c0,0.04-0.01,0.08-0.01,0.12c-0.68,0-1.36,0-2.03,0
			c-0.01-0.03-0.02-0.05-0.03-0.08c0.12-0.04,0.25-0.06,0.36-0.12c0.13-0.07,0.34-0.14,0.37-0.25c0.32-1.18,0.61-2.37,0.92-3.58
			c-0.23-0.04-0.42-0.07-0.61-0.11c0-0.06,0.01-0.12,0.01-0.18c1.26-0.03,2.52,0,3.86-0.02c-0.06,0.51-0.11,0.97-0.16,1.43
			c-0.05,0-0.11,0-0.16,0c-0.01-0.15-0.02-0.3-0.02-0.45c-0.01-0.47-0.14-0.67-0.59-0.7c-0.5-0.04-1.01-0.03-1.51-0.02
			c-0.09,0-0.22,0.12-0.25,0.21c-0.14,0.49-0.26,1-0.4,1.52c0.7,0.07,1.36,0.18,1.63-0.76c0.04,0.04,0.08,0.09,0.13,0.13
			c-0.14,0.56-0.29,1.11-0.44,1.72c-0.1-0.09-0.15-0.11-0.15-0.14c-0.01-0.68-0.01-0.68-0.72-0.68c-0.17,0-0.33,0-0.52,0
			C238.05,151.14,237.91,151.71,237.77,152.33z"/>
		<path d="M236.33,146.47c0.12-0.17,0.19-0.3,0.29-0.4c0.45-0.46,0.94-0.88,1.35-1.38c0.27-0.32,0.5-0.71,0.62-1.11
			c0.15-0.51-0.15-0.99-0.59-1.15c-0.48-0.18-0.95,0-1.16,0.34c0.08,0.32,0.16,0.52,0.16,0.72c0,0.04-0.31,0.16-0.41,0.11
			c-0.29-0.14-0.21-0.42-0.12-0.66c0.21-0.55,0.66-0.79,1.21-0.81c0.61-0.02,1.15,0.15,1.45,0.73c0.27,0.52,0.17,1.03-0.23,1.43
			c-0.44,0.44-0.94,0.83-1.41,1.25c-0.11,0.1-0.22,0.2-0.4,0.37c0.6,0,1.13,0.01,1.64-0.01c0.09,0,0.19-0.16,0.25-0.27
			c0.06-0.1,0.09-0.22,0.13-0.34c0.05,0.01,0.1,0.02,0.14,0.04c-0.06,0.37-0.11,0.74-0.17,1.14
			C238.19,146.47,237.32,146.47,236.33,146.47z"/>
		<path d="M193.48,147.99c0,1.4,0.01,2.8-0.01,4.2c0,0.13-0.12,0.26-0.19,0.38c-0.05-0.13-0.16-0.25-0.16-0.38
			c-0.01-2.83-0.01-5.65,0-8.48c0-0.13,0.13-0.26,0.2-0.39c0.05,0.13,0.15,0.26,0.15,0.39
			C193.48,145.14,193.48,146.57,193.48,147.99z"/>
		<path d="M195.28,147.97c0,1.34,0,2.69,0,4.03c0,0.11,0.02,0.23-0.01,0.33c-0.03,0.09-0.11,0.16-0.17,0.25
			c-0.06-0.08-0.15-0.15-0.18-0.24c-0.03-0.07-0.01-0.17-0.01-0.25c0-2.76,0-5.51,0.01-8.27c0-0.17,0.11-0.33,0.17-0.5
			c0.06,0.16,0.18,0.32,0.18,0.49C195.29,145.2,195.28,146.58,195.28,147.97z"/>
		<path d="M232.95,147.93c0,1.38,0,2.77,0,4.15c0,0.11,0.01,0.23-0.02,0.33c-0.02,0.06-0.11,0.14-0.17,0.14
			c-0.05,0-0.14-0.09-0.16-0.15c-0.03-0.12-0.02-0.25-0.02-0.37c0-2.71,0-5.43,0-8.14c0-0.07-0.02-0.15,0-0.21
			c0.05-0.13,0.12-0.24,0.18-0.36c0.06,0.12,0.17,0.25,0.17,0.37C232.96,145.11,232.95,146.52,232.95,147.93z"/>
		<path d="M234.75,147.97c0,1.34,0,2.68,0,4.03c0,0.1,0.02,0.2-0.01,0.29c-0.03,0.1-0.11,0.19-0.17,0.29
			c-0.06-0.09-0.14-0.18-0.19-0.28c-0.03-0.06-0.01-0.14-0.01-0.21c0-2.75,0-5.51,0.01-8.26c0-0.17,0.11-0.33,0.17-0.5
			c0.06,0.16,0.18,0.32,0.18,0.49C234.76,145.2,234.75,146.58,234.75,147.97z"/>
		<path d="M210.49,147.76c0.83,0,1.65-0.01,2.48,0.01c0.13,0,0.25,0.11,0.38,0.16c-0.13,0.07-0.26,0.19-0.39,0.19
			c-1.62,0.01-3.24,0.01-4.87,0c-0.13,0-0.25-0.11-0.38-0.16c0.13-0.07,0.26-0.19,0.39-0.19
			C208.89,147.75,209.69,147.76,210.49,147.76z"/>
		<path d="M228.46,143.23c-0.77-0.88-1.55-0.87-2.3-0.01c-0.13-0.15-0.21-0.24-0.32-0.38c0.49-0.39,0.96-0.77,1.46-1.17
			c0.49,0.39,0.96,0.77,1.45,1.17C228.67,142.94,228.6,143.04,228.46,143.23z"/>
		<path d="M218.27,142.53c0.27-0.73,0.81-0.99,1.4-0.65c0.55,0.32,1.04,0.34,1.53-0.24c-0.09,0.6-0.7,1.01-1.14,0.87
			c-0.03-0.01-0.05-0.02-0.08-0.03C219.42,142.16,218.85,141.9,218.27,142.53z"/>
		<path class="st2" d="M226.91,145.5c0.38,0.92,0.71,1.72,1.05,2.56c-0.72,0-1.37,0-2.1,0C226.2,147.23,226.53,146.43,226.91,145.5z
			"/>
	</g>
</g>
<path class="st0" d="M171.74,81.11l5.06,1.81l-5.06,1.81L171.74,81.11z M167.33,82.31h5.26v1.2l-5.26,0V82.31z"/>
<path class="st0" d="M170.76,20.23l5.53,1.81l-5.49,1.87L170.76,20.23z M133.23,21.63l38.46-0.18l0.01,1.23l-38.46,0.18
	L133.23,21.63z"/>
<g>
	<g>
		<path d="M74.59,42.36c0.11,0.08,0.24,0.15,0.34,0.24c0.26,0.25,0.34,0.56,0.11,0.84c-0.11,0.14-0.34,0.21-0.52,0.23
			c-0.09,0.01-0.28-0.16-0.28-0.24c0-0.17,0.09-0.35,0.18-0.5c0.04-0.07,0.15-0.1,0.23-0.16c-0.39-0.27-0.77-0.2-0.88,0.22
			c-0.19,0.72-0.32,1.46-0.48,2.23c0.43,0.03,0.77,0.05,1.12,0.07c-0.31,0.46-0.77,0.15-1.19,0.35c-0.2,1.04-0.37,2.14-0.63,3.22
			c-0.19,0.79-0.42,1.58-0.77,2.31c-0.33,0.7-0.95,0.88-1.48,0.61c-0.42-0.21-0.53-0.73-0.22-1.02c0.2-0.18,0.48-0.31,0.65-0.05
			c0.09,0.14,0,0.42-0.05,0.62c-0.02,0.08-0.16,0.13-0.25,0.2c0.52,0.19,0.76,0.1,0.92-0.45c0.2-0.71,0.35-1.43,0.49-2.16
			c0.22-1.09,0.42-2.19,0.63-3.32c-0.33-0.03-0.65-0.07-0.97-0.1c0-0.07,0-0.14,0.01-0.2c0.32-0.03,0.64-0.06,1-0.09
			c0.32-1.01,0.18-2.27,1.37-2.86C74.15,42.36,74.37,42.36,74.59,42.36z"/>
		<path d="M80.08,52.37c-0.16-0.17-0.14-0.24,0.11-0.3c0.16-0.04,0.39-0.17,0.43-0.31c0.25-0.91,0.45-1.82,0.68-2.75
			c-0.19-0.06-0.35-0.11-0.51-0.17c0.01-0.04,0.01-0.07,0.02-0.11c1.16,0,2.32,0,3.56,0c-0.04,0.39-0.07,0.78-0.11,1.17
			c-0.03,0-0.06,0.01-0.1,0.01c-0.03-0.06-0.08-0.11-0.09-0.17c-0.06-0.72-0.11-0.76-0.81-0.8c-0.08,0-0.16-0.01-0.24-0.01
			c-1.27-0.04-1.31,0-1.44,1.34c0.57,0.01,1.19,0.2,1.44-0.62c0.04,0.03,0.09,0.06,0.13,0.09c-0.11,0.47-0.22,0.94-0.33,1.4
			c-0.05,0-0.09,0-0.14-0.01c-0.02-0.17-0.05-0.34-0.07-0.5c-0.96-0.28-1.11-0.2-1.34,0.71c-0.06,0.23-0.1,0.46-0.16,0.69
			c0.61,0,1.19,0.04,1.76-0.01c0.67-0.07,0.86-0.69,1.15-1.19c0.06,0.03,0.12,0.07,0.17,0.1c-0.24,0.48-0.47,0.96-0.71,1.44
			C82.35,52.37,81.21,52.37,80.08,52.37z"/>
		<path d="M74.95,49.59c0.07-0.88,0.31-1.79,0.95-2.56c0.14-0.17,0.3-0.33,0.47-0.46c0.53-0.39,1.12-0.6,1.76-0.29
			c0.65,0.31,0.8,0.92,0.77,1.55c-0.04,0.92-0.28,1.8-0.84,2.56c-0.17,0.22-0.37,0.43-0.59,0.6c-0.55,0.41-1.15,0.61-1.8,0.27
			C75.04,50.93,74.94,50.33,74.95,49.59z M76,48.67c0.37,0,0.56,0,0.75,0c1.19,0,1.36-0.17,1.27-1.4c-0.02-0.26-0.2-0.68-0.36-0.71
			c-0.24-0.04-0.65,0.12-0.78,0.33C76.54,47.4,76.32,47.99,76,48.67z M75.98,49.08c-0.06,0.42-0.16,0.82-0.14,1.22
			c0.01,0.25,0.17,0.67,0.31,0.7c0.25,0.04,0.62-0.09,0.82-0.27c0.46-0.43,0.63-1.02,0.74-1.65C77.14,49.08,76.61,49.08,75.98,49.08
			z"/>
	</g>
	<text transform="matrix(1 0 0 1 64.1084 38.1864)" class="st3 st6">EDIP</text>
	<g>
		<rect x="44.85" y="24.18" class="st8" width="64.6" height="35.58"/>
	</g>
</g>
<path class="st0" d="M123.12,43.81l1.91-1.81l-1.9-1.87L123.12,43.81z M110.14,42.41l13.31,0.18l0-1.23l-13.31-0.18L110.14,42.41z"
	/>
<path class="st0" d="M124.68,125.21l1.87-1.81l-1.85-1.87L124.68,125.21z M112.01,123.8l12.99,0.18l0-1.23l-12.99-0.18L112.01,123.8
	z"/>
<line class="st9" x1="133.62" y1="34.86" x2="133.58" y2="22.85"/>
<path class="st0" d="M171.12,145.6l5.53-1.81l-5.49-1.87L171.12,145.6z M133.59,144.2l38.46,0.18l0.01-1.23l-38.46-0.18
	L133.59,144.2z"/>
<line class="st9" x1="133.98" y1="130.96" x2="133.95" y2="142.98"/>
<g>
	<g>
		<path d="M74.6,125.8c0.11,0.08,0.24,0.15,0.34,0.24c0.26,0.25,0.34,0.56,0.11,0.84c-0.11,0.14-0.33,0.21-0.52,0.24
			c-0.09,0.01-0.28-0.16-0.28-0.24c0-0.17,0.09-0.35,0.17-0.5c0.04-0.07,0.15-0.1,0.23-0.16c-0.38-0.28-0.76-0.21-0.88,0.21
			c-0.19,0.72-0.32,1.46-0.49,2.25c0.42,0.02,0.77,0.04,1.12,0.05c0.01,0.04,0.03,0.08,0.04,0.12c-0.09,0.05-0.17,0.14-0.26,0.15
			c-0.19,0.02-0.38,0.02-0.57,0.01c-0.28-0.02-0.4,0.05-0.46,0.37c-0.26,1.39-0.52,2.78-0.86,4.15c-0.13,0.51-0.43,1.01-0.74,1.45
			c-0.32,0.45-0.9,0.49-1.31,0.2c-0.35-0.24-0.42-0.74-0.1-0.96c0.16-0.11,0.42-0.05,0.63-0.08c-0.01,0.21,0.01,0.43-0.03,0.64
			c-0.02,0.08-0.16,0.13-0.25,0.19c0.42,0.23,0.71,0.14,0.87-0.36c0.18-0.57,0.31-1.15,0.42-1.74c0.25-1.26,0.48-2.53,0.73-3.82
			c-0.34-0.03-0.65-0.06-0.97-0.09c0-0.07,0.01-0.14,0.01-0.2c0.32-0.03,0.65-0.06,1-0.09c0.32-1.01,0.17-2.26,1.37-2.86
			C74.16,125.8,74.38,125.8,74.6,125.8z"/>
		<path d="M80,135.83c0.06-0.09,0.11-0.19,0.19-0.26c0.23-0.19,0.54-0.32,0.71-0.55c0.62-0.87,1.2-1.77,1.8-2.66
			c0.1-0.14,0.23-0.25,0.45-0.48c0.13,0.64,0.23,1.14,0.33,1.64c0.1,0.49,0.19,0.99,0.27,1.49c0.05,0.3,0.04,0.62,0.49,0.6
			c0.03,0,0.07,0.14,0.11,0.22c-0.54,0-1.07,0-1.61,0c0.15-0.13,0.3-0.26,0.48-0.41c-0.01-0.76-0.01-0.76-0.79-0.76
			c-0.11,0-0.22,0-0.33,0c-0.78,0-0.86,0.06-1.12,0.75c0.1,0.16,0.17,0.29,0.25,0.41C80.82,135.83,80.41,135.83,80,135.83z
			 M81.61,134.38c0.53,0,0.97,0,1.46,0c-0.1-0.55-0.2-1.06-0.32-1.69C82.33,133.3,81.99,133.82,81.61,134.38z"/>
		<path d="M74.96,133.01c0.07-0.87,0.32-1.79,0.96-2.55c0.14-0.17,0.3-0.33,0.48-0.45c0.54-0.39,1.12-0.59,1.77-0.27
			c0.62,0.31,0.78,0.9,0.76,1.52c-0.04,1.01-0.31,1.96-0.97,2.76c-0.14,0.17-0.3,0.32-0.48,0.45c-0.55,0.4-1.16,0.6-1.81,0.25
			C75.04,134.37,74.94,133.76,74.96,133.01z M76.03,132.11c0.62,0,1.08,0.02,1.53-0.01c0.12-0.01,0.3-0.16,0.33-0.28
			c0.08-0.33,0.14-0.68,0.14-1.02c0-0.32,0.03-0.71-0.37-0.83c-0.4-0.12-0.7,0.13-0.86,0.43C76.52,130.91,76.32,131.47,76.03,132.11
			z M75.97,132.53c-0.05,0.47-0.14,0.9-0.13,1.33c0.01,0.21,0.16,0.53,0.33,0.6c0.17,0.07,0.5-0.03,0.67-0.17
			c0.55-0.44,0.72-1.09,0.87-1.77C77.13,132.53,76.6,132.53,75.97,132.53z"/>
	</g>
	<text transform="matrix(1 0 0 1 64.2629 121.7468)" class="st3 st6">ADIP</text>
	<g>
		<rect x="44.85" y="105.58" class="st8" width="64.6" height="35.58"/>
	</g>
</g>
</svg>
